<svg width="20" height="20" xmlns="http://www.w3.org/2000/svg">
  <title>ic_eye</title>
  <g fill-rule="evenodd" fill="none" id="ic_eye">
    <path fill="#3F464C" id="Eye-Shape" d="m10.01203,4c3.04633,0 6.09266,1.53226 9.13899,4.59677l0.31513,0.32249c0.76534,0.79645 0.74011,2.06252 -0.05634,2.82786c-0.01564,0.01503 -0.03153,0.02981 -0.04766,0.04432c-3.1167,2.80571 -6.23341,4.20856 -9.35012,4.20856c-3.00539,0 -6.01079,-1.30444 -9.01618,-3.91331l-0.33394,-0.29525c-0.82093,-0.73901 -0.88734,-2.0036 -0.14832,-2.82453c0.01452,-0.01613 0.02929,-0.03201 0.04433,-0.04766c3.15137,-3.2795 6.30274,-4.91925 9.45411,-4.91925zm0,1c-2.92083,0 -5.81281,1.57196 -8.78517,4.6558c-0.16492,0.19728 -0.23583,0.4453 -0.19361,0.70427c0.05474,0.3358 0.26997,0.66819 0.6117,0.97674c2.7889,2.41737 5.57041,3.66319 8.36708,3.66319c2.89775,0 5.77752,-1.33807 8.73755,-3.99469c0.17825,-0.18455 0.26639,-0.42656 0.24239,-0.688c-0.0312,-0.34 -0.22345,-0.68862 -0.5442,-1.02325c-2.81179,-2.82406 -5.6112,-4.29406 -8.43574,-4.29406z"/>
    <path fill="#3F464C" id="Lens" d="m10.01202,4c2.76142,0 5,2.23858 5,5c0,2.76142 -2.23858,5 -5,5c-2.76142,0 -5,-2.23858 -5,-5c0,-2.76142 2.23858,-5 5,-5zm0,3c-1.10457,0 -2,0.89543 -2,2c0,1.10457 0.89543,2 2,2c1.10457,0 2,-0.89543 2,-2c0,-1.10457 -0.89543,-2 -2,-2z"/>
  </g>
</svg>
