<svg width="20" height="20" xmlns="http://www.w3.org/2000/svg">
  <title>ic_eye_slash</title>
  <g fill-rule="evenodd" fill="none" id="ic_eye_slash">
    <path fill="#3F464C" id="Eye-Shape-Slash" d="m4.2015,5.7828l0.72371,0.72416c-1.22404,0.75664 -2.45415,1.7826 -3.69835,3.07346c-0.16492,0.19728 -0.23583,0.4453 -0.19361,0.70427c0.05474,0.3358 0.26997,0.66819 0.6117,0.97674c2.7889,2.41737 5.57041,3.66319 8.36708,3.66319c0.96292,0 1.92385,-0.14775 2.8864,-0.44254l0.79186,0.79124c-1.22608,0.4342 -2.45217,0.6513 -3.67826,0.6513c-3.00539,0 -6.01079,-1.30444 -9.01618,-3.91331l-0.33394,-0.29525c-0.82093,-0.73901 -0.88734,-2.0036 -0.14832,-2.82453c0.01452,-0.01613 0.02929,-0.03201 0.04433,-0.04766c1.21452,-1.26391 2.42905,-2.28426 3.64358,-3.06107zm5.81053,-1.85818c3.04633,0 6.09266,1.53226 9.13899,4.59677l0.31513,0.32249c0.76534,0.79645 0.74011,2.06252 -0.05634,2.82786c-0.01564,0.01503 -0.03153,0.02981 -0.04766,0.04432c-0.94214,0.84814 -1.88428,1.56808 -2.82643,2.15983l-0.72606,-0.72775c0.97347,-0.59211 1.95223,-1.33176 2.93992,-2.21821c0.17825,-0.18455 0.26639,-0.42656 0.24239,-0.688c-0.0312,-0.34 -0.22345,-0.68862 -0.5442,-1.02325c-2.81179,-2.82406 -5.6112,-4.29406 -8.43574,-4.29406c-0.71607,0 -1.4304,0.09448 -2.14461,0.28255l-0.80267,-0.80447c0.98243,-0.31872 1.96486,-0.47808 2.94728,-0.47808z"/>
    <path fill="#3F464C" id="Lens" d="m5.4022,6.98489l6.54955,6.54955c-0.59646,0.25128 -1.25187,0.39018 -1.93973,0.39018c-2.76142,0 -5,-2.23858 -5,-5c0,-0.68786 0.1389,-1.34327 0.39018,-1.93973zm4.60982,-3.06027c2.76142,0 5,2.23858 5,5c0,0.97765 -0.28059,1.88977 -0.76564,2.66021l-6.89457,-6.89457c0.77044,-0.48505 1.68256,-0.76564 2.66021,-0.76564z"/>
    <rect rx="0.5" height="20" width="1" y="11.92462" x="22.51202" transform="rotate(-45 10.51202011108398,9.924621582031248) translate(-12.5,-12) " fill="#3F464C" id="Slash"/>
  </g>
</svg>
